<svg xmlns="http://www.w3.org/2000/svg" width="429.11632" height="438.4" viewBox="0 0 429.11632 438.4">
  <defs>
    <style>
      .a {
        fill: #f30;
      }
    </style>
  </defs>
  <title>chargebee_logo-freelogovectors.net</title>
  <g>
    <path class="a" d="M247.65058,240.02077l286.90758-69.05891V20.8H385.781Z" transform="translate(-105.44184 -20.8)"/>
    <path class="a" d="M105.44184,237.38017a218.39313,218.39313,0,0,0,6.2677,52.108l135.92092-49.47292-137.04588-49.918a220.412,220.412,0,0,0-5.14274,47.24266Z" transform="translate(-105.44184 -20.8)"/>
    <path class="a" d="M155.98928,97.76028l91.605,142.255L289.82141,22.943A213.58435,213.58435,0,0,0,155.98928,97.76028Z" transform="translate(-105.44184 -20.8)"/>
    <path class="a" d="M247.65058,240.01894l286.90758,69.0196V459.2H385.781Z" transform="translate(-105.44184 -20.8)"/>
    <path class="a" d="M155.99824,382.22751l91.605-142.25428,42.18712,217.03053A213.59236,213.59236,0,0,1,155.958,382.18726Z" transform="translate(-105.44184 -20.8)"/>
  </g>
</svg>
