<svg width="132" height="146" viewBox="0 0 132 146" fill="none" xmlns="http://www.w3.org/2000/svg">
    <g clip-path="url(#clip0_433_1034)">
        <path
            d="M71.81 64.57V86.09H107.81V112.44C99.16 118.88 87.09 123.1 73.82 123.1C70.42 123.1 67.17 122.78 64.05 122.21C40.82 117.93 25.95 98.35 25.95 72.81V72.41C25.95 45.46 45.66 22.73 71.61 22.73C89.51 22.73 100.17 28.56 111.03 37.82L126.72 19.11C112.24 6.84 97.15 0 72.61 0C30.17 0 0 33.39 0 72.81V73.21C0 103.9 16.21 129.18 42.81 139.98C51.77 143.62 61.91 145.63 73.02 145.63C97.96 145.63 117.87 135.57 131.75 123.71V64.57H71.81Z"
            fill="#153D5E"></path>
    </g>
    <defs>
        <clipPath id="clip0_433_1034">
            <rect width="131.75" height="145.63" fill="white"></rect>
        </clipPath>
    </defs>
</svg>