<svg width="27" height="25" viewBox="0 0 27 25" fill="none" xmlns="http://www.w3.org/2000/svg"><path d="M26.5814 6.08856L23.0494 1.03527C22.4135 0.124799 21.2558 -0.215255 20.2524 0.135769C20.2083 0.150395 20.1642 0.165021 20.1201 0.179647L13.5081 2.60025L6.88876 0.17599C6.84465 0.157708 6.79687 0.143082 6.75277 0.132112C5.74939 -0.211599 4.60268 0.128456 3.96684 1.03527L0.434805 6.08856C-0.215735 7.01731 -0.1165 8.24224 0.600197 9.05764L11.5455 24.0164C11.8285 24.4003 12.2033 24.6782 12.615 24.8428C12.615 24.8428 12.615 24.8428 12.6187 24.8428C12.6517 24.8574 12.6848 24.8684 12.7179 24.8793C12.7252 24.8793 12.7363 24.8867 12.7436 24.8867C12.7694 24.894 12.7951 24.9049 12.8208 24.9122C12.8355 24.9159 12.8502 24.9196 12.8649 24.9232C12.887 24.9305 12.9053 24.9342 12.9274 24.9378C12.9458 24.9415 12.9641 24.9452 12.9825 24.9525C13.0009 24.9561 13.0193 24.9598 13.0377 24.9634C13.0597 24.9671 13.0818 24.9707 13.1001 24.9744C13.1148 24.9744 13.1332 24.9781 13.1479 24.9817C13.17 24.9817 13.192 24.989 13.2141 24.989C13.2288 24.989 13.2471 24.989 13.2618 24.9927C13.2839 24.9927 13.306 24.9963 13.328 25C13.3464 25 13.3611 25 13.3795 25C13.4015 25 13.4199 25 13.4419 25C13.4603 25 13.4787 25 13.5007 25C13.5191 25 13.5375 25 13.5596 25C13.5816 25 13.6 25 13.622 25C13.6404 25 13.6551 25 13.6735 25C13.6955 25 13.7176 25 13.7396 24.9927C13.7543 24.9927 13.7727 24.9927 13.7874 24.989C13.8095 24.989 13.8315 24.9817 13.8536 24.9817C13.8683 24.9817 13.8867 24.9781 13.9014 24.9744C13.9234 24.9744 13.9455 24.9671 13.9638 24.9634C13.9822 24.9634 14.0006 24.9561 14.019 24.9525C14.0374 24.9488 14.0557 24.9452 14.0741 24.9378C14.0962 24.9342 14.1145 24.9269 14.1366 24.9232C14.1513 24.9196 14.166 24.9159 14.1807 24.9122C14.2064 24.9049 14.2321 24.8976 14.2579 24.8867C14.2652 24.8867 14.2763 24.8793 14.2836 24.8793C14.3167 24.8684 14.3498 24.8574 14.3828 24.8428C14.3828 24.8428 14.3828 24.8428 14.3865 24.8428C14.8018 24.6819 15.1767 24.404 15.456 24.0164L26.4013 9.05764C27.118 8.24224 27.2136 7.01731 26.5667 6.08856H26.5814ZM12.9605 17.7455L5.69794 7.81443C5.52887 7.58407 5.52519 7.26961 5.69059 7.03559L6.58738 5.75216C6.76379 5.49986 7.08723 5.39748 7.37758 5.50352L12.5268 7.39028C12.784 7.48534 13.0487 7.53653 13.306 7.54385C13.6845 7.58407 14.0815 7.54385 14.4674 7.40124L19.646 5.50352C19.9363 5.39748 20.2598 5.49986 20.4362 5.75216L21.333 7.03559C21.4984 7.26961 21.4947 7.58407 21.3256 7.81443L14.0631 17.7455C13.7948 18.1148 13.2398 18.1148 12.9678 17.7455H12.9605Z" fill="currentColor"></path></svg>
