<?xml version="1.0" encoding="utf-8"?>
<svg version="1.1" id="layer" x="0px" y="0px" viewBox="17.888 258.697 127.231 127.009" style="enable-background:new 0 0 652 652;" xmlns="http://www.w3.org/2000/svg">
  <style type="text/css">
	.st0{fill:#5952FF;}
</style>
  <path class="st0" d="M 74.2 265.6 C 92.6 265.6 120.3 271.3 133.3 284.2 C 136.6 287.5 140.9 293.9 140.9 303.4 C 140.9 320.2 127.4 345.9 112.6 360.9 C 104.9 368.6 92.7 378.7 76.2 378.7 C 60.1 378.7 47.8 367.7 44.3 364.2 C 30.7 350.5 20.9 329.8 20.9 310.4 C 20.9 298.2 24.4 287.5 33.2 278.6 C 41.4 270.3 55.5 265.6 74.2 265.6 Z M 97 332.5 C 103.2 326.3 104.9 318.6 104.9 314.4 C 104.9 311.3 104.1 306.8 100.3 303 C 94.4 297.1 88 295.5 80.9 295.5 C 72 295.5 66 298.3 62 302.3 C 58.9 305.4 56.2 310.3 56.2 317.2 C 56.2 324.1 59.8 330.7 63.8 334.7 C 67.5 338.4 73.2 341.1 79.1 341.1 C 85 341.1 90.8 338.7 97 332.5 Z"/>
</svg>