<svg width="400" height="400" viewBox="0 0 400 400" fill="none" xmlns="http://www.w3.org/2000/svg">
<rect x="0.503976" y="0.503976" width="398.992" height="398.992" fill="white"/>
<rect x="0.503976" y="0.503976" width="398.992" height="398.992" stroke="#E7E7E7" stroke-width="1.00795"/>
<g clip-path="url(#clip0_934_33)">
<path d="M336.421 198.049C308.127 173.117 279.824 148.192 251.539 123.259C251.539 123.251 251.522 123.242 251.513 123.225C232.83 103.659 207.028 90.9284 178.273 89.2048C176.045 89.0683 173.792 89 171.53 89C168.884 89 166.264 89.0939 163.669 89.2816C145.225 90.57 128.035 96.3894 113.192 105.63C113.158 105.656 113.124 105.673 113.082 105.699C112.535 106.04 111.998 106.381 111.46 106.731C110.734 107.201 110.017 107.678 109.309 108.165C108.694 108.591 108.08 109.018 107.474 109.453C80.9893 128.294 63.1935 158.534 61.1878 192.998C61.0597 195.148 61 197.316 61 199.5C61 202.358 61.111 205.2 61.3243 207.999C65.4639 262.447 109.079 305.862 163.618 309.718C166.23 309.906 168.867 310 171.53 310C174.193 310 176.566 309.915 179.05 309.744C207.165 307.858 232.403 295.46 250.856 276.449C251.829 275.596 252.802 274.734 253.775 273.864C276.504 253.547 299.541 233.572 322.432 213.434C327.596 208.886 332.691 204.27 338 199.526C337.215 198.783 336.831 198.408 336.421 198.049ZM171.411 276.782C128.752 276.731 94.1762 241.934 94.2274 199.09C94.27 157.126 128.931 122.406 170.967 122.227C213.643 122.048 248.099 156.64 248.099 199.662C248.091 242.121 213.574 276.833 171.411 276.782Z" fill="#E3163D"/>
</g>
<defs>
<clipPath id="clip0_934_33">
<rect width="277" height="221" fill="white" transform="translate(61 89)"/>
</clipPath>
</defs>
</svg>
