<?xml version="1.0" encoding="UTF-8"?>
<svg version="1.1" xmlns="http://www.w3.org/2000/svg" width="380" height="420">
<path d="M0 0 C125.4 0 250.8 0 380 0 C380 138.6 380 277.2 380 420 C254.6 420 129.2 420 0 420 C0 281.4 0 142.8 0 0 Z " fill="#EDEEF1" transform="translate(0,0)"/>
<path d="M0 0 C11.25057264 9.17693769 18.24590269 22.29825459 19.87255859 36.62402344 C20.93880064 52.3381538 17.62529752 65.49555515 7.7421875 77.98046875 C-2.89916176 89.97154797 -15.42352695 96.65733935 -31.53125 97.69140625 C-42.42289226 98.12151736 -51.76640189 96.23859912 -61.57202148 91.29589844 C-62.28720444 90.93606873 -63.00238739 90.57623901 -63.73924255 90.20550537 C-64.55280968 89.79440521 -64.55280968 89.79440521 -65.3828125 89.375 C-65.36710205 90.49471191 -65.3513916 91.61442383 -65.33520508 92.76806641 C-65.28073356 96.93889111 -65.24639998 101.10968462 -65.21801758 105.28076172 C-65.2029701 107.08289892 -65.1825272 108.88499973 -65.15649414 110.68701172 C-65.11993229 113.28362021 -65.10304569 115.87974275 -65.08984375 118.4765625 C-65.07435989 119.2767984 -65.05887604 120.0770343 -65.04292297 120.90151978 C-65.0411065 126.9967171 -66.34658631 131.09921778 -70.5078125 135.75 C-74.50982492 138.01200702 -77.88471355 138.1913519 -82.3828125 137.375 C-86.00479436 135.21722357 -87.76952899 133.21141704 -89.3828125 129.375 C-89.63728809 127.42988491 -89.63728809 127.42988491 -89.64350891 125.36143494 C-89.65059372 124.5724884 -89.65767853 123.78354187 -89.66497803 122.97068787 C-89.66250061 122.1140303 -89.66002319 121.25737274 -89.6574707 120.37475586 C-89.66258163 119.46525177 -89.66769257 118.55574768 -89.67295837 117.61868286 C-89.68686721 114.60900298 -89.68589564 111.59955198 -89.68359375 108.58984375 C-89.68748194 106.49198827 -89.69181687 104.39413358 -89.69657898 102.29627991 C-89.70404542 97.89386447 -89.70374827 93.49152921 -89.69848633 89.08911133 C-89.69271231 83.46947277 -89.70957057 77.85016602 -89.732831 72.23058224 C-89.74762865 67.8937643 -89.74843149 63.55702495 -89.74532127 59.22018623 C-89.74583216 57.14991159 -89.75102581 55.07963228 -89.76113319 53.00938225 C-89.84376309 33.70513086 -87.34130169 17.86326683 -73.3828125 3.375 C-51.46803696 -15.64368123 -23.99641108 -16.36476559 0 0 Z " fill="#020202" transform="translate(248.3828125,122.625)"/>
<path d="M0 0 C7.17262766 4.26246652 12.18719349 10.49819298 14.58984375 18.5390625 C15.66106832 28.09846651 15.50711732 37.28475543 9.6328125 45.1640625 C3.5211089 52.32735394 -2.71870875 57.48181368 -12.41015625 58.5390625 C-23.02012133 58.78111494 -30.32156813 56.46684742 -38.16015625 49.3515625 C-45.24040314 41.64416088 -47.17919253 34.51217545 -46.75 24.0859375 C-45.79751873 14.14509849 -41.87989145 8.22802974 -34.41015625 1.5390625 C-24.28740984 -6.17845015 -11.08386763 -5.32620753 0 0 Z " fill="#EBECEF" transform="translate(229.41015625,138.4609375)"/>
<path d="M0 0 C9.27055749 4.85351221 18.94370734 5.28733318 29.19921875 5.3359375 C30.79636719 5.366875 30.79636719 5.366875 32.42578125 5.3984375 C42.33932864 5.44656152 51.33658777 3.67398195 60.32421875 -0.6015625 C65.33680308 -2.76103094 68.65104811 -3.75558898 74.07421875 -2.9140625 C77.82634151 -0.89903361 79.7106597 0.54059892 82.07421875 4.0859375 C82.4453125 6.35546875 82.4453125 6.35546875 82.51171875 8.8984375 C82.57166016 10.14560547 82.57166016 10.14560547 82.6328125 11.41796875 C81.84370381 15.18692844 79.88121944 17.57671109 77.07421875 20.0859375 C72.33448195 22.71846134 67.2063017 24.37447897 62.07421875 26.0859375 C61.35927246 26.3329541 60.64432617 26.5799707 59.90771484 26.83447266 C36.87280114 34.59128401 11.21112922 32.9723247 -10.92578125 23.0859375 C-11.74175781 22.73273438 -12.55773437 22.37953125 -13.3984375 22.015625 C-17.16016867 20.28154203 -19.90368789 18.77328422 -21.92578125 15.0859375 C-23.13221691 11.46663052 -23.24846684 8.89362745 -22.92578125 5.0859375 C-21.21543648 1.72859406 -19.90286862 -0.31695355 -16.67578125 -2.2890625 C-10.00033194 -3.80621007 -5.85327242 -3.24287391 0 0 Z " fill="#030303" transform="translate(140.92578125,277.9140625)"/>
</svg>
