<svg width="300" height="301" viewBox="0 0 300 301" fill="none" xmlns="http://www.w3.org/2000/svg">
<path d="M209.595 0.337891H90.4054C40.4759 0.337891 0 40.8138 0 90.7433V209.932C0 259.862 40.4759 300.338 90.4054 300.338H209.595C259.524 300.338 300 259.862 300 209.932V90.7433C300 40.8138 259.524 0.337891 209.595 0.337891Z" fill="#ECE0F5"/>
<path d="M105.405 138.446C123.108 138.446 137.432 152.771 137.432 170.473V212.23C137.432 229.798 123.243 244.122 105.541 244.122H73.3784V170.473C73.3784 152.771 87.7027 138.581 105.405 138.581V138.446Z" fill="#5A1CB7"/>
<path d="M105.27 121.554C87.5676 121.554 73.2433 107.23 73.2433 89.6622C73.2433 71.9595 87.5676 57.7703 105.27 57.7703C122.973 57.7703 137.297 72.0946 137.297 89.6622C137.297 107.365 122.973 121.554 105.27 121.554Z" fill="#E23393"/>
<path d="M193.784 243.987C176.216 243.987 161.892 229.798 161.892 212.095V170.338C161.892 152.635 176.216 138.446 193.919 138.446C211.622 138.446 225.946 152.771 225.946 170.338V243.987H193.784Z" fill="#5A1CB7"/>
<path d="M193.919 57.6351C211.622 57.6351 225.811 71.9594 225.811 89.5269C225.811 107.23 211.486 121.554 193.919 121.554C176.216 121.554 161.892 107.23 161.892 89.5269C161.892 71.8242 176.216 57.6351 193.919 57.6351Z" fill="#5A1CB7"/>
</svg>
